<?xml version="1.0" encoding="UTF-8"?>
<svg id="Layer_6" data-name="Layer 6" xmlns="http://www.w3.org/2000/svg" viewBox="0 0 68.98 68.98">
  <defs>
    <style>
      .cls-1 {
        fill: #b26e35;
      }
    </style>
  </defs>
  <path class="cls-1" d="M34.49,68.98c-4.77,0-9.26-.91-13.45-2.72-4.2-1.81-7.85-4.27-10.95-7.37-3.11-3.11-5.56-6.76-7.37-10.95-1.81-4.2-2.72-8.68-2.72-13.45s.91-9.26,2.72-13.45c1.81-4.2,4.27-7.85,7.37-10.95,3.1-3.1,6.76-5.56,10.95-7.37,4.2-1.81,8.68-2.72,13.45-2.72s9.26.91,13.45,2.72,7.85,4.27,10.95,7.37c3.1,3.1,5.56,6.76,7.37,10.95,1.81,4.2,2.72,8.68,2.72,13.45s-.91,9.26-2.72,13.45c-1.81,4.2-4.27,7.85-7.37,10.95s-6.76,5.56-10.95,7.37c-4.2,1.81-8.68,2.72-13.45,2.72ZM34.49,62.08c7.7,0,14.23-2.67,19.58-8.02s8.02-11.87,8.02-19.58-2.67-14.23-8.02-19.58-11.87-8.02-19.58-8.02-14.23,2.67-19.58,8.02-8.02,11.87-8.02,19.58,2.67,14.23,8.02,19.58c5.35,5.35,11.87,8.02,19.58,8.02Z"/>
  <polyline class="cls-1" points="17.24 37.93 31.04 37.93 31.04 51.73 37.94 51.73 37.94 37.93 51.74 37.93 51.74 31.03 37.94 31.03 37.94 17.23 31.04 17.23 31.04 31.03 17.24 31.03"/>
</svg>