<?xml version="1.0" encoding="UTF-8"?>
<svg id="Layer_6" data-name="Layer 6" xmlns="http://www.w3.org/2000/svg" viewBox="0 0 70 70">
  <defs>
    <style>
      .cls-1 {
        fill: #1a75bb;
      }
    </style>
  </defs>
  <path class="cls-1" d="M35,69.5c-4.77,0-9.26-.91-13.45-2.72-4.2-1.81-7.85-4.27-10.95-7.37-3.11-3.11-5.56-6.76-7.37-10.95-1.81-4.2-2.72-8.68-2.72-13.45s.91-9.26,2.72-13.45c1.81-4.2,4.27-7.85,7.37-10.95,3.1-3.1,6.76-5.56,10.95-7.37,4.2-1.81,8.68-2.72,13.45-2.72s9.26.91,13.45,2.72,7.85,4.27,10.95,7.37c3.1,3.1,5.56,6.76,7.37,10.95,1.81,4.2,2.72,8.68,2.72,13.45s-.91,9.26-2.72,13.45c-1.81,4.2-4.27,7.85-7.37,10.95s-6.76,5.56-10.95,7.37c-4.2,1.81-8.68,2.72-13.45,2.72ZM35,62.6c7.7,0,14.23-2.67,19.58-8.02s8.02-11.87,8.02-19.58-2.67-14.23-8.02-19.58-11.87-8.02-19.58-8.02-14.23,2.67-19.58,8.02-8.02,11.87-8.02,19.58,2.67,14.23,8.02,19.58c5.35,5.35,11.87,8.02,19.58,8.02Z"/>
  <polyline class="cls-1" points="17.75 38.45 31.55 38.45 31.55 52.25 38.45 52.25 38.45 38.45 52.25 38.45 52.25 31.55 38.45 31.55 38.45 17.75 31.55 17.75 31.55 31.55 17.75 31.55"/>
</svg>