<?xml version="1.0" encoding="UTF-8"?>
<svg id="Layer_1" xmlns="http://www.w3.org/2000/svg" version="1.1" viewBox="0 0 200 200">
  <!-- Generator: Adobe Illustrator 29.4.0, SVG Export Plug-In . SVG Version: 2.1.0 Build 152)  -->
  <defs>
    <style>
      .st0 {
        stroke: #00824a;
      }

      .st0, .st1, .st2 {
        fill: none;
      }

      .st0, .st2 {
        stroke-width: 20px;
      }

      .st3 {
        isolation: isolate;
      }

      .st2 {
        stroke: #1a75bb;
      }
    </style>
  </defs>
  <path class="st1" d="M100,20c44.2,0,80,35.8,80,80s-35.8,80-80,80S20,144.2,20,100,55.8,20,100,20Z"/>
  <path class="st2" d="M100,20c44.2,0,80,35.8,80,80s-35.8,80-80,80"/>
  <path class="st0" d="M100,180c-44.2,0-80-35.8-80-80S55.8,20,100,20"/>
  <g class="st3">
    <path d="M49.5,103.4l3.4,1.3c-.5,2.4-1.4,4.2-2.7,5.3-1.2,1.1-2.8,1.7-4.6,1.7s-4.2-.9-5.6-2.7c-1.6-2-2.5-4.8-2.5-8.3s.8-6.5,2.5-8.6c1.4-1.8,3.4-2.7,5.8-2.7s3.6.7,5,2c.9,1,1.6,2.4,2.1,4.3l-3.5,1c-.2-1.2-.7-2.1-1.3-2.7-.7-.6-1.5-.9-2.4-.9-1.3,0-2.4.6-3.2,1.7s-1.2,3-1.2,5.6.4,4.6,1.2,5.8,1.8,1.7,3.1,1.7,1.7-.4,2.4-1.1c.7-.7,1.2-1.9,1.5-3.5Z"/>
    <path d="M55.2,103.3c0-1.5.3-2.9.9-4.2s1.4-2.2,2.4-2.8,2.1-.9,3.3-.9c2.1,0,3.7.8,4.8,2.4s1.8,3.5,1.8,5.6-.3,3.1-.9,4.3-1.4,2.3-2.4,2.9-2.1,1-3.3,1c-1.9,0-3.5-.7-4.7-2.2s-1.9-3.5-1.9-6.2ZM58.6,103.5c0,1.6.3,2.8.9,3.6.6.8,1.4,1.2,2.2,1.2s1.6-.4,2.2-1.2c.6-.8.9-2,.9-3.6s-.3-2.7-.9-3.5c-.6-.8-1.4-1.2-2.2-1.2s-1.6.4-2.2,1.2c-.6.8-.9,2-.9,3.6Z"/>
    <path d="M70.7,95.7h3.1v2.1c.6-.8,1.2-1.5,1.8-1.9.7-.4,1.4-.6,2.2-.6s1.5.2,2.1.6,1.1,1,1.5,1.9c.6-.8,1.2-1.5,1.8-1.9s1.3-.6,2.1-.6,1.6.2,2.2.6c.6.4,1.1,1,1.4,1.8.3.8.5,2,.5,3.6v10h-3.4v-8.9c0-1.6-.1-2.6-.4-3.1-.3-.5-.7-.8-1.4-.8s-1.4.4-1.8,1.1-.7,2.1-.7,4.2v7.5h-3.4v-8.5c0-1.7,0-2.8-.3-3.3-.2-.6-.7-1-1.5-1s-1,.2-1.4.5c-.4.3-.7.8-.9,1.5s-.3,1.7-.3,3.2v7.6h-3.4v-15.6Z"/>
    <path d="M92.8,95.7h3.1v2.3c.4-.8,1-1.5,1.7-1.9.7-.5,1.5-.7,2.3-.7,1.5,0,2.7.7,3.8,2.1,1.1,1.4,1.6,3.4,1.6,5.9s-.5,4.7-1.6,6.2c-1.1,1.4-2.3,2.1-3.8,2.1s-1.3-.2-1.9-.5c-.6-.3-1.2-.9-1.8-1.8v7.8h-3.4v-21.5ZM96.1,103.2c0,1.8.3,3.1.9,3.9.6.8,1.3,1.2,2.1,1.2s1.4-.4,1.9-1.2c.5-.8.8-2,.8-3.8s-.3-2.9-.8-3.7c-.5-.8-1.2-1.2-2-1.2s-1.5.4-2,1.2c-.5.8-.8,1.9-.8,3.5Z"/>
    <path d="M107.9,111.3v-21.5h3.4v21.5h-3.4Z"/>
    <path d="M122.1,106.3l3.4.7c-.5,1.6-1.1,2.7-2.1,3.5-.9.8-2.1,1.1-3.5,1.1s-3.3-.6-4.4-1.9c-1.2-1.5-1.8-3.5-1.8-6.2s.6-4.7,1.8-6.3c1-1.3,2.4-2,4-2s3.3.7,4.3,2c1.2,1.5,1.8,3.8,1.8,6.8v.5h-8.5c0,1.2.3,2.2.8,2.9.5.7,1.2,1,1.9,1,1.1,0,1.8-.7,2.2-2.2ZM122.3,102.1c0-1.2-.3-2.1-.8-2.7-.5-.6-1.1-.9-1.7-.9s-1.3.3-1.8,1c-.5.6-.7,1.5-.7,2.7h5.1Z"/>
    <path d="M134.2,95.7v3.3h-2.3v6.3c0,1.4,0,2.1.1,2.4.1.4.4.6.8.6s.8-.1,1.3-.4l.3,3.2c-.8.4-1.7.6-2.7.6s-1.5-.2-2.1-.6c-.5-.4-.9-1-1-1.8-.1-.6-.2-1.7-.2-3.5v-6.8h-1.6v-3.3h1.6v-3.1l3.4-2.4v5.5h2.3Z"/>
    <path d="M144,106.3l3.4.7c-.5,1.6-1.1,2.7-2.1,3.5-.9.8-2.1,1.1-3.5,1.1s-3.3-.6-4.4-1.9c-1.2-1.5-1.8-3.5-1.8-6.2s.6-4.7,1.8-6.3c1-1.3,2.4-2,4-2s3.3.7,4.3,2c1.2,1.5,1.8,3.8,1.8,6.8v.5h-8.5c0,1.2.3,2.2.8,2.9.5.7,1.2,1,1.9,1,1.1,0,1.8-.7,2.2-2.2ZM144.2,102.1c0-1.2-.3-2.1-.8-2.7-.5-.6-1.1-.9-1.7-.9s-1.3.3-1.8,1c-.5.6-.7,1.5-.7,2.7h5.1Z"/>
    <path d="M162,111.3h-3.1v-2.3c-.5.9-1.1,1.5-1.8,2-.7.4-1.4.7-2.2.7-1.4,0-2.7-.7-3.7-2.1-1.1-1.4-1.6-3.5-1.6-6.1s.5-4.7,1.5-6c1-1.4,2.3-2,3.8-2s1.4.2,2,.5,1.2.9,1.7,1.6v-7.7h3.4v21.5ZM153,103.1c0,1.4.1,2.5.4,3.2.2.7.6,1.2,1,1.6.4.3.9.5,1.5.5s1.4-.4,1.9-1.2c.5-.8.8-2,.8-3.6s-.3-3.1-.8-3.9c-.5-.8-1.2-1.2-2-1.2s-1.4.4-2,1.2c-.5.8-.8,1.9-.8,3.5Z"/>
  </g>
</svg>