<?xml version="1.0" encoding="UTF-8"?>
<svg id="Layer_1" xmlns="http://www.w3.org/2000/svg" version="1.1" viewBox="0 0 200 200">
  <!-- Generator: Adobe Illustrator 29.4.0, SVG Export Plug-In . SVG Version: 2.1.0 Build 152)  -->
  <defs>
    <style>
      .st0 {
        stroke: #bf1712;
        stroke-width: 20px;
      }

      .st0, .st1 {
        fill: none;
      }
    </style>
  </defs>
  <path class="st1" d="M100,20c44.2,0,80,35.8,80,80s-35.8,80-80,80S20,144.2,20,100,55.8,20,100,20Z"/>
  <path class="st0" d="M100,20c44.2,0,80,35.8,80,80s-35.8,80-80,80"/>
  <path class="st0" d="M100,180c-44.2,0-80-35.8-80-80S55.8,20,100,20"/>
  <g>
    <path d="M64.9,89.6h6.5c1.6,0,2.9.2,3.7.5s1.6,1,2.3,1.9c.7.9,1.3,2,1.7,3.4s.6,3.1.6,5.2-.2,3.5-.6,4.8c-.4,1.4-1,2.5-1.6,3.3-.6.8-1.4,1.4-2.3,1.8-.9.4-2.1.6-3.5.6h-6.7v-21.5ZM68.4,93.3v14.2h2.7c1.1,0,2-.1,2.5-.3s.9-.5,1.3-1,.6-1.1.8-2.1c.2-.9.3-2.2.3-3.7s-.1-2.8-.3-3.8-.6-1.6-1-2.2-1-.9-1.7-1c-.5-.1-1.5-.2-2.9-.2h-1.6Z"/>
    <path d="M90.1,106.2l3.4.7c-.5,1.6-1.1,2.7-2.1,3.5-.9.8-2.1,1.1-3.5,1.1s-3.3-.6-4.4-1.9c-1.2-1.5-1.8-3.5-1.8-6.2s.6-4.7,1.8-6.3c1-1.3,2.4-2,4-2s3.3.7,4.3,2c1.2,1.5,1.8,3.8,1.8,6.8v.5h-8.5c0,1.2.3,2.2.8,2.9s1.2,1,1.9,1c1.1,0,1.8-.7,2.2-2.2ZM90.2,102c0-1.2-.3-2.1-.8-2.7-.5-.6-1.1-.9-1.7-.9s-1.3.3-1.8,1c-.5.6-.7,1.5-.7,2.7h5.1Z"/>
    <path d="M96.3,111.1v-21.5h3.4v21.5h-3.4Z"/>
    <path d="M110.6,106.2l3.4.7c-.5,1.6-1.1,2.7-2.1,3.5-.9.8-2.1,1.1-3.5,1.1s-3.3-.6-4.4-1.9c-1.2-1.5-1.8-3.5-1.8-6.2s.6-4.7,1.8-6.3c1-1.3,2.4-2,4-2s3.3.7,4.3,2c1.2,1.5,1.8,3.8,1.8,6.8v.5h-8.5c0,1.2.3,2.2.8,2.9s1.2,1,1.9,1c1.1,0,1.8-.7,2.2-2.2ZM110.8,102c0-1.2-.3-2.1-.8-2.7-.5-.6-1.1-.9-1.7-.9s-1.3.3-1.8,1c-.5.6-.7,1.5-.7,2.7h5.1Z"/>
    <path d="M122.7,95.5v3.3h-2.3v6.3c0,1.4,0,2.1.1,2.4.1.4.4.6.8.6s.8-.1,1.3-.4l.3,3.2c-.8.4-1.7.6-2.7.6s-1.5-.2-2.1-.6c-.5-.4-.9-1-1-1.8-.1-.6-.2-1.7-.2-3.5v-6.8h-1.6v-3.3h1.6v-3.1l3.4-2.4v5.5h2.3Z"/>
    <path d="M132.4,106.2l3.4.7c-.5,1.6-1.1,2.7-2.1,3.5-.9.8-2.1,1.1-3.5,1.1s-3.3-.6-4.4-1.9c-1.2-1.5-1.8-3.5-1.8-6.2s.6-4.7,1.8-6.3c1-1.3,2.4-2,4-2s3.3.7,4.3,2c1.2,1.5,1.8,3.8,1.8,6.8v.5h-8.5c0,1.2.3,2.2.8,2.9.5.7,1.2,1,1.9,1,1.1,0,1.8-.7,2.2-2.2ZM132.6,102c0-1.2-.3-2.1-.8-2.7-.5-.6-1.1-.9-1.7-.9s-1.3.3-1.8,1c-.5.6-.7,1.5-.7,2.7h5.1Z"/>
  </g>
</svg>