<?xml version="1.0" encoding="UTF-8"?>
<svg id="Layer_1" xmlns="http://www.w3.org/2000/svg" version="1.1" viewBox="0 0 200 200">
  <!-- Generator: Adobe Illustrator 29.4.0, SVG Export Plug-In . SVG Version: 2.1.0 Build 152)  -->
  <defs>
    <style>
      .st0, .st1 {
        fill: none;
      }

      .st2 {
        isolation: isolate;
      }

      .st1 {
        stroke: #1a75bb;
        stroke-width: 20px;
      }
    </style>
  </defs>
  <path class="st0" d="M100,20c44.2,0,80,35.8,80,80s-35.8,80-80,80S20,144.2,20,100,55.8,20,100,20Z"/>
  <path class="st1" d="M100,20c44.2,0,80,35.8,80,80s-35.8,80-80,80"/>
  <g class="st2">
    <path d="M38.4,110.4v-20h3.3v20h-3.3Z"/>
    <path d="M55.7,110.4h-3.2v-7.4c0-1.5,0-2.5-.2-3-.1-.5-.3-.9-.7-1.1-.3-.3-.7-.4-1.1-.4s-1,.2-1.4.5c-.4.3-.7.8-.9,1.4-.2.6-.3,1.7-.3,3.4v6.6h-3.2v-14.5h2.9v2.1c.5-.8,1.1-1.4,1.8-1.8.7-.4,1.4-.6,2.2-.6s1.7.2,2.3.7c.6.5,1.1,1.1,1.3,1.8.2.8.4,1.8.4,3.3v9Z"/>
    <path d="M65.3,110.4v-20h5.3c2,0,3.3,0,3.9.3,1,.3,1.8,1,2.4,2,.6,1,1,2.3,1,3.9s-.3,2.7-.8,3.6-1.2,1.7-2.1,2.1-2.2.6-4.2.6h-2.2v7.6h-3.3ZM68.6,93.7v5.7h1.8c1.2,0,2.1,0,2.5-.3.4-.2.8-.5,1.1-.9s.4-1,.4-1.7-.1-1.2-.4-1.7c-.3-.5-.7-.8-1.1-.9-.4-.2-1.3-.2-2.7-.2h-1.6Z"/>
    <path d="M83.6,110.4h-3.2v-14.5h2.9v2.1c.5-1,1-1.6,1.3-1.9s.9-.5,1.4-.5,1.4.2,2.1.7l-1,3.3c-.5-.4-1-.6-1.5-.6s-.8.2-1.2.5c-.3.3-.6.9-.7,1.8-.1.8-.2,2.4-.2,4.7v4.5Z"/>
    <path d="M88.8,102.9c0-1.4.3-2.7.8-3.9.6-1.2,1.3-2,2.2-2.6.9-.6,1.9-.9,3.1-.9,1.9,0,3.4.8,4.5,2.3s1.6,3.3,1.6,5.3-.3,2.8-.9,4.1c-.6,1.2-1.3,2.1-2.2,2.7-.9.6-1.9.9-3,.9-1.8,0-3.2-.7-4.4-2-1.2-1.4-1.8-3.3-1.8-5.8ZM92,103.1c0,1.5.3,2.6.9,3.3.6.8,1.3,1.1,2.1,1.1s1.5-.4,2-1.1c.6-.8.8-1.9.8-3.4s-.3-2.5-.9-3.3c-.6-.8-1.3-1.1-2.1-1.1s-1.5.4-2,1.1c-.6.8-.9,1.9-.9,3.3Z"/>
    <path d="M103.2,111.4l3.6.5c0,.5.2.9.5,1.1s.7.3,1.3.3,1.3-.1,1.7-.3c.3-.2.5-.4.7-.8s.2-1.1.2-2v-2.1c-.5.8-1,1.4-1.6,1.8s-1.2.6-2,.6c-1.3,0-2.4-.6-3.3-1.8-1-1.4-1.6-3.2-1.6-5.6s.5-4.4,1.5-5.6,2.2-1.9,3.6-1.9,1.4.2,2,.6,1.1,1,1.6,1.8v-2h3v13c0,2.1-.2,3.6-.6,4.5s-1,1.6-1.8,2.1-1.9.7-3.3.7-2.3-.2-3.1-.5-1.4-.9-1.8-1.6-.6-1.5-.6-2.4v-.5ZM106.1,102.8c0,1.6.2,2.7.7,3.4.5.7,1.1,1.1,1.8,1.1s1.4-.4,1.9-1.1c.5-.7.8-1.8.8-3.3s-.3-2.6-.8-3.4-1.2-1.1-1.9-1.1-1.4.4-1.9,1.1-.7,1.8-.7,3.3Z"/>
    <path d="M120.6,110.4h-3.2v-14.5h2.9v2.1c.5-1,1-1.6,1.3-1.9s.9-.5,1.4-.5,1.4.2,2.1.7l-1,3.3c-.5-.4-1-.6-1.5-.6s-.8.2-1.2.5c-.3.3-.6.9-.7,1.8s-.2,2.4-.2,4.7v4.5Z"/>
    <path d="M133.4,105.8l3.1.6c-.4,1.5-1.1,2.5-2,3.2-.9.7-2,1.1-3.2,1.1s-3.1-.6-4.1-1.8c-1.1-1.4-1.7-3.3-1.7-5.8s.6-4.4,1.7-5.8c1-1.2,2.2-1.8,3.7-1.8s3,.6,4,1.9c1.1,1.4,1.7,3.6,1.7,6.4v.4h-7.9c0,1.2.3,2,.8,2.7.5.6,1.1.9,1.8.9,1,0,1.7-.7,2-2.1ZM133.6,101.9c0-1.1-.3-2-.7-2.6-.5-.6-1-.9-1.6-.9s-1.2.3-1.7.9c-.5.6-.7,1.4-.7,2.5h4.7Z"/>
    <path d="M138.2,106.3l3.2-.6c.3,1.5,1.1,2.3,2.5,2.3s1.3-.1,1.7-.4.6-.7.6-1.1,0-.6-.2-.8c-.2-.2-.5-.3-1-.5-2.6-.7-4.2-1.3-4.9-2-.9-.8-1.3-1.8-1.3-3.2s.4-2.4,1.3-3.2c.9-.8,2.1-1.2,3.7-1.2s2.7.3,3.6.9,1.4,1.6,1.7,2.9l-3,.7c-.3-1.2-1-1.8-2.2-1.8s-1.3.1-1.7.3-.5.5-.5.9.2.6.5.8c.3.2,1.2.5,2.8,1,1.8.5,3,1.1,3.6,1.8.6.7.9,1.6.9,2.8s-.5,2.6-1.4,3.5-2.3,1.4-4,1.4-2.8-.4-3.8-1.1-1.6-1.9-1.9-3.3Z"/>
    <path d="M150.9,106.3l3.2-.6c.3,1.5,1.1,2.3,2.5,2.3s1.3-.1,1.7-.4.6-.7.6-1.1,0-.6-.2-.8c-.2-.2-.5-.3-1-.5-2.6-.7-4.2-1.3-4.9-2-.9-.8-1.3-1.8-1.3-3.2s.4-2.4,1.3-3.2c.9-.8,2.1-1.2,3.7-1.2s2.7.3,3.6.9,1.4,1.6,1.7,2.9l-3,.7c-.3-1.2-1-1.8-2.2-1.8s-1.3.1-1.7.3-.5.5-.5.9.2.6.5.8c.3.2,1.2.5,2.8,1,1.8.5,3,1.1,3.6,1.8.6.7.9,1.6.9,2.8s-.5,2.6-1.4,3.5-2.3,1.4-4,1.4-2.8-.4-3.8-1.1-1.6-1.9-1.9-3.3Z"/>
  </g>
</svg>