<?xml version="1.0" encoding="UTF-8"?>
<svg id="Layer_2" data-name="Layer 2" xmlns="http://www.w3.org/2000/svg" viewBox="0 0 70 70">
  <defs>
    <style>
      .cls-1 {
        fill: #5e850f;
      }
    </style>
  </defs>
  <path class="cls-1" d="M15,51.8c-1.08,0-2.02-.4-2.81-1.21-.79-.81-1.19-1.74-1.19-2.79v-25.6c0-1.08.4-2.02,1.19-2.81.79-.79,1.73-1.19,2.81-1.19h40c1.08,0,2.02.4,2.81,1.19.79.79,1.19,1.73,1.19,2.81v25.6c0,1.05-.4,1.98-1.19,2.79-.79.81-1.73,1.21-2.81,1.21H15ZM15,47.8h40v-25.6H15s0,25.6,0,25.6ZM24.6,44.4h20.8v-4h-20.8s0,4,0,4ZM18.32,37h4v-4h-4v4ZM25.68,37h4v-4h-4v4ZM33,37h4v-4h-4s0,4,0,4ZM40.36,37h4v-4h-4s0,4,0,4ZM47.68,37h4v-4h-4s0,4,0,4ZM18.32,29.6h4v-4h-4v4ZM25.68,29.6h4v-4h-4v4ZM33,29.6h4v-4h-4s0,4,0,4ZM40.36,29.6h4v-4h-4s0,4,0,4ZM47.68,29.6h4v-4h-4s0,4,0,4ZM15,47.8v-25.6,25.6Z"/>
  <path class="cls-1" d="M35,3c17.64,0,32,14.36,32,32s-14.36,32-32,32S3,52.64,3,35,17.36,3,35,3M35,0C15.67,0,0,15.67,0,35s15.67,35,35,35,35-15.67,35-35S54.33,0,35,0h0Z"/>
</svg>