<?xml version="1.0" encoding="UTF-8"?>
<svg id="p" xmlns="http://www.w3.org/2000/svg" viewBox="0 0 70 70">
  <defs>
    <style>
      .cls-1 {
        fill: #005192;
      }
    </style>
  </defs>
  <path class="cls-1" d="M35,3c17.64,0,32,14.36,32,32s-14.36,32-32,32S3,52.64,3,35,17.36,3,35,3M35,0C15.67,0,0,15.67,0,35s15.67,35,35,35,35-15.67,35-35S54.33,0,35,0h0Z"/>
  <g>
    <path class="cls-1" d="M35.01,46.03c3.07,0,5.67-1.07,7.81-3.22,2.14-2.15,3.21-4.75,3.21-7.82s-1.07-5.67-3.22-7.81c-2.15-2.14-4.75-3.21-7.82-3.21s-5.67,1.07-7.81,3.22c-2.14,2.15-3.21,4.75-3.21,7.82s1.07,5.67,3.22,7.81c2.15,2.14,4.75,3.21,7.82,3.21ZM34.99,42.04c-1.96,0-3.62-.69-4.99-2.06-1.36-1.37-2.05-3.04-2.05-5,0-1.96.69-3.62,2.06-4.99,1.37-1.36,3.04-2.05,5-2.05s3.62.69,4.99,2.06c1.36,1.37,2.05,3.04,2.05,5s-.69,3.62-2.06,4.99c-1.37,1.36-3.04,2.05-5,2.05ZM35,54.09c-6.19,0-11.81-1.75-16.84-5.25-5.03-3.5-8.75-8.11-11.16-13.84,2.4-5.73,6.12-10.34,11.16-13.84,5.03-3.5,10.65-5.25,16.84-5.25s11.81,1.75,16.84,5.25c5.03,3.5,8.75,8.11,11.16,13.84-2.4,5.73-6.12,10.34-11.16,13.84-5.03,3.5-10.65,5.25-16.84,5.25ZM34.99,49.85c5.02,0,9.64-1.35,13.85-4.04,4.21-2.69,7.41-6.3,9.62-10.81-2.21-4.51-5.41-8.11-9.61-10.81-4.2-2.69-8.82-4.04-13.84-4.04s-9.64,1.35-13.85,4.04c-4.21,2.69-7.43,6.3-9.66,10.81,2.23,4.51,5.45,8.11,9.65,10.81,4.2,2.69,8.82,4.04,13.84,4.04Z"/>
    <circle class="cls-1" cx="35.18" cy="35.17" r="8.5"/>
  </g>
</svg>