<?xml version="1.0" encoding="UTF-8"?>
<svg id="Layer_5" data-name="Layer 5" xmlns="http://www.w3.org/2000/svg" viewBox="0 0 70 70">
  <defs>
    <style>
      .cls-1 {
        fill: #666;
      }
    </style>
  </defs>
  <path class="cls-1" d="M42.41,53l-10-10,3.29-3.29,6.71,6.71,13.29-13.29,3.29,3.29-16.59,16.59ZM55.35,29.64h-4.71v-11.76h-4.71v7.06h-23.53v-7.06h-4.71v32.94h14.12v4.71h-14.12c-1.29,0-2.4-.46-3.32-1.38-.92-.92-1.38-2.03-1.38-3.32V17.88c0-1.29.46-2.4,1.38-3.32.92-.92,2.03-1.38,3.32-1.38h9.82c.43-1.37,1.27-2.5,2.53-3.38,1.25-.88,2.63-1.32,4.12-1.32,1.57,0,2.97.44,4.21,1.32s2.07,2.01,2.5,3.38h9.76c1.29,0,2.4.46,3.32,1.38s1.38,2.03,1.38,3.32v11.76ZM34.18,17.88c.67,0,1.23-.23,1.68-.68.45-.45.68-1.01.68-1.68s-.23-1.23-.68-1.68c-.45-.45-1.01-.68-1.68-.68s-1.23.23-1.68.68c-.45.45-.68,1.01-.68,1.68s.23,1.23.68,1.68c.45.45,1.01.68,1.68.68Z"/>
  <path class="cls-1" d="M35,3c17.64,0,32,14.36,32,32s-14.36,32-32,32S3,52.64,3,35,17.36,3,35,3M35,0C15.67,0,0,15.67,0,35s15.67,35,35,35,35-15.67,35-35S54.33,0,35,0h0Z"/>
</svg>