<?xml version="1.0" encoding="UTF-8"?>
<svg xmlns="http://www.w3.org/2000/svg" viewBox="0 0 70 70">
  <defs>
    <style>
      .cls-1 {
        fill: #ac6628;
      }

      .cls-2 {
        fill: #fff;
      }
    </style>
  </defs>
  <g id="Layer_3" data-name="Layer 3">
    <path class="cls-1" d="M35,62.59c-1.23,0-2.31-.29-3.26-.88-.95-.59-1.61-1.4-1.98-2.43h-.64c-1.24,0-2.32-.46-3.23-1.37-.91-.91-1.37-1.99-1.37-3.23v-9.84c-2.93-1.92-5.25-4.39-6.95-7.43-1.71-3.03-2.56-6.37-2.56-10,0-5.56,1.94-10.29,5.83-14.17,3.89-3.89,8.61-5.83,14.17-5.83s10.29,1.94,14.17,5.83c3.89,3.89,5.83,8.61,5.83,14.17,0,3.66-.85,7-2.56,10.02-1.71,3.02-4.03,5.49-6.95,7.4v9.84c0,1.24-.46,2.32-1.37,3.23-.91.91-1.99,1.37-3.23,1.37h-.64c-.37,1.03-1.03,1.84-1.98,2.43-.95.59-2.04.88-3.26.88ZM29.12,54.68h11.77v-2.85h-11.77s0,2.85,0,2.85ZM29.12,49.07h11.77v-2.71h-11.77s0,2.71,0,2.71ZM28.52,41.76h4.74v-8.78l-6.25-6.25,2.39-2.39,5.61,5.61,5.61-5.61,2.39,2.39-6.25,6.25v8.78h4.74c2.67-1.26,4.82-3.18,6.46-5.76,1.64-2.58,2.46-5.44,2.46-8.59,0-4.32-1.49-7.97-4.46-10.94-2.97-2.97-6.62-4.46-10.94-4.46s-7.97,1.49-10.94,4.46c-2.97,2.97-4.46,6.62-4.46,10.94,0,3.14.82,6,2.46,8.59,1.64,2.58,3.79,4.5,6.46,5.76Z"/>
  </g>
  <g id="Layer_4" data-name="Layer 4">
    <path class="cls-2" d="M35,3c17.64,0,32,14.36,32,32s-14.36,32-32,32S3,52.64,3,35,17.36,3,35,3M35,0C15.67,0,0,15.67,0,35s15.67,35,35,35,35-15.67,35-35S54.33,0,35,0h0Z"/>
  </g>
</svg>